<?xml version="1.0" standalone="no"?>
<!DOCTYPE svg PUBLIC "-//W3C//DTD SVG 20010904//EN"
 "http://www.w3.org/TR/2001/REC-SVG-20010904/DTD/svg10.dtd">
<svg version="1.0" xmlns="http://www.w3.org/2000/svg"
 width="512.000000pt" height="512.000000pt" viewBox="0 0 512.000000 512.000000"
 preserveAspectRatio="xMidYMid meet">

<g transform="translate(0.000000,512.000000) scale(0.100000,-0.100000)"
fill="#000000" stroke="none">
<path d="M1 4818 c0 -283 1 -300 15 -249 60 225 275 372 486 333 35 -6 92 -26
128 -44 60 -31 130 -102 952 -968 660 -695 895 -949 917 -991 80 -148 80 -310
0 -460 -23 -43 -203 -238 -726 -790 -1111 -1172 -1072 -1132 -1161 -1176 -73
-36 -80 -38 -176 -38 -94 0 -106 2 -174 34 -121 57 -210 166 -246 301 -14 51
-15 25 -15 -357 l-1 -413 1253 1 c1098 0 1246 2 1200 14 -212 57 -352 269
-316 478 25 148 -35 81 1002 1120 l946 947 -946 948 c-1037 1038 -977 971
-1002 1119 -36 209 104 421 316 478 46 12 -102 14 -1200 14 l-1253 1 1 -302z"/>
<path d="M2669 5104 c30 -8 75 -26 101 -40 65 -35 2270 -2242 2299 -2302 12
-23 28 -66 36 -95 12 -46 14 102 14 1201 l1 1252 -1252 -1 c-1114 0 -1247 -2
-1199 -15z"/>
<path d="M2 2670 c-1 -1641 0 -1722 16 -1660 23 88 61 148 152 244 42 45 328
347 635 671 307 325 592 624 633 666 l75 77 -649 684 c-357 376 -680 717 -718
757 -71 77 -120 163 -135 242 -5 25 -9 -685 -9 -1681z"/>
<path d="M5106 2462 c-17 -111 7 -85 -1183 -1274 -771 -770 -1131 -1123 -1161
-1137 -23 -12 -66 -28 -95 -36 -46 -12 102 -14 1201 -14 l1252 -1 0 1250 c0
688 -2 1250 -4 1250 -2 0 -6 -17 -10 -38z"/>
</g>
</svg>
